<svg width="16" height="16" version="1.1" viewBox="0 0 16 16" xmlns="http://www.w3.org/2000/svg"><g><path fill="context-fill" d="m4 3a2 2 0 0 0-2 2v6h-1a1 1 0 0 0 0 2h14a1 1 0 0 0 0-2h-1v-6a2 2 0 0 0-0.3574-1.141c-1.038 1.025-2.023 2.114-3.133 3.051-0.768 0.4958-1.81-0.4247-1.365-1.24 0.7292-0.9703 1.707-1.738 2.525-2.637 0.004649-0.00875 0.02506-0.02381 0.03125-0.0332h-7.701z"/><path fill="context-fill" d="m10.04 1.5 3.801 0.0257c-1.351 1.385-2.7 2.747-4.084 4.131-0.5572 0.5572 0.152 1.217 0.72 0.6491l4.073-4.073-0.01023 3.767c-0.0019 0.6863 1 0.6829 1 0v-4.5c0-0.6991-0.2971-1-1-1h-4.5c-0.7153 0-0.731 1 0 1z"/></g></svg>
